<svg xmlns="http://www.w3.org/2000/svg" xmlns:xlink="http://www.w3.org/1999/xlink" xml:space="preserve" style="shape-rendering:geometricPrecision;text-rendering:geometricPrecision;image-rendering:optimizeQuality;" viewBox="0 0 6.827 8.53375" x="0px" y="0px" fill-rule="evenodd" clip-rule="evenodd"><defs><style type="text/css">
   
    .fil1 {fill:none}
    .fil0 {fill:black;fill-rule:nonzero}
   
  </style></defs><g><path class="fil0" d="M3.4135 1.80933c0.528819,0 1.00777,0.205606 1.35463,0.538012 0.347252,0.332783 0.562035,0.792594 0.562035,1.30053 0,1.02902 -0.525327,1.28967 -1.04053,1.5453 -0.341185,0.169283 -0.677744,0.336276 -0.837547,0.73576l0.000102362 4.33071e-005c-0.00854724,0.0213661 -0.0327992,0.0317598 -0.0541654,0.0232126 -0.0119055,-0.00476378 -0.0204016,-0.0144055 -0.0241142,-0.0257047 -0.160201,-0.397705 -0.496063,-0.564378 -0.836543,-0.733311 -0.515209,-0.25563 -1.04054,-0.516283 -1.04054,-1.5453 0,-0.507937 0.214783,-0.967748 0.562035,-1.30053 0.346858,-0.332406 0.825815,-0.538012 1.35463,-0.538012zm1.29702 0.597909c-0.331744,-0.317921 -0.790299,-0.514571 -1.29702,-0.514571 -0.506717,0 -0.965276,0.19665 -1.29702,0.514571 -0.331358,0.317551 -0.536311,0.756193 -0.536311,1.24063 0,0.977567 0.501827,1.22656 0.993984,1.47076 0.330728,0.164094 0.657256,0.326165 0.839346,0.693157 0.182091,-0.366992 0.508618,-0.529063 0.839346,-0.693157 0.492154,-0.244193 0.99398,-0.493189 0.99398,-1.47076 0,-0.484441 -0.204953,-0.923083 -0.536311,-1.24063z"/><path class="fil0" d="M2.13987 4.16332c0,0.0230118 0.0186575,0.0416693 0.0416693,0.0416693 0.0230118,0 0.0416693,-0.0186575 0.0416693,-0.0416693 0,-0.518677 0.181429,-0.996579 0.486744,-1.37861 0.312768,-0.391358 0.755461,-0.682433 1.26638,-0.814142 0.0222008,-0.00566142 0.0356063,-0.0282559 0.0299449,-0.0504567 -0.00566142,-0.0222008 -0.0282559,-0.0356063 -0.0504567,-0.0299449 -0.52865,0.13628 -0.986823,0.437598 -1.31065,0.842787 -0.316953,0.396602 -0.505303,0.892461 -0.505303,1.43037z"/><path class="fil0" d="M4.19572 0.955004c0.0229213,-0.000535433 0.041063,-0.0195591 0.0405276,-0.0424803 -0.000535433,-0.0229213 -0.0195591,-0.041063 -0.0424803,-0.0405276 -0.00179134,4.33071e-005 -0.625902,0.00515354 -0.725642,0.977087 -0.00233465,0.0228307 0.0142795,0.0432402 0.0371102,0.0455748 0.0228307,0.00233465 0.0432402,-0.0142795 0.0455748,-0.0371102 0.0922008,-0.898437 0.643327,-0.902504 0.644909,-0.902543z"/><path class="fil0" d="M2.96542 1.18986c-0.0199528,-0.0114134 -0.0453898,-0.00448819 -0.0568031,0.0154646 -0.0114134,0.0199528 -0.00448819,0.0453898 0.0154646,0.0568031l0.612917 0.351031c0.0199528,0.0114134 0.0453898,0.00448819 0.0568031,-0.0154646 0.0114134,-0.0199528 0.00448819,-0.0453898 -0.0154646,-0.0568031l-0.612917 -0.351031z"/><path class="fil0" d="M3.37758 1.50611c-0.0931181,0.0375157 -0.194244,0.0538858 -0.295421,0.0469646 -0.098185,-0.00671654 -0.196406,-0.0353701 -0.287394,-0.0879016 -0.102764,-0.0593307 -0.13648,-0.143638 -0.173382,-0.235917 -0.0297638,-0.0744252 -0.0619055,-0.154799 -0.14028,-0.22528l-4.33071e-005 4.72441e-005c-0.0171102,-0.0153819 -0.0185079,-0.0417323 -0.00312598,-0.0588425 0.00488976,-0.00544094 0.0108898,-0.00929134 0.0173465,-0.0115197 0.0931299,-0.0375315 0.194272,-0.0539016 0.295465,-0.0469803 0.098185,0.00671654 0.196406,0.0353701 0.287394,0.0879016 0.0908307,0.0524409 0.164713,0.123177 0.219665,0.204921 0.0570039,0.0847874 0.0935157,0.181339 0.107358,0.281516l-0.0411772 0.00569685 0.0412756 -0.00570472c0.00277165,0.0200591 -0.00922835,0.038752 -0.0276811,0.0450984zm-0.289886 -0.0360433c0.0781299,0.00534252 0.156276,-0.00519291 0.229657,-0.0303228 -0.0149252,-0.0761063 -0.044874,-0.149039 -0.0885551,-0.214012 -0.0479646,-0.0713465 -0.112642,-0.133197 -0.192327,-0.179205 -0.0795315,-0.0459173 -0.165406,-0.0709685 -0.25126,-0.0768386 -0.0679685,-0.00464961 -0.135953,0.00272441 -0.200799,0.0212677 0.0587126,0.0688465 0.0872874,0.140276 0.114122,0.207378 0.0313189,0.0783228 0.0599409,0.149882 0.137902,0.194894 0.0795315,0.0459173 0.165406,0.0709685 0.25126,0.0768386z"/><path class="fil0" d="M4.08289 1.5715c0.0198661,0.0115039 0.0453031,0.00472835 0.0568071,-0.0151378 0.0115039,-0.0198661 0.00472835,-0.0453031 -0.0151378,-0.0568071l-0.43172 -0.251264c-0.0198661,-0.0115039 -0.0453031,-0.00472835 -0.0568071,0.0151378 -0.0115039,0.0198661 -0.00472835,0.0453031 0.0151378,0.0568071l0.43172 0.251264z"/><path class="fil0" d="M3.85518 1.39114c0.0108543,0.0484528 0.0306142,0.094811 0.0585787,0.136402 0.0329646,0.0490315 0.0773071,0.0914803 0.131846,0.122965l-0.0206693 0.0359724 0.0208307 -0.0360866c0.000724409,0.000417323 0.0014252,0.000854331 0.00211417,0.00130709 0.0506693,0.028248 0.102028,0.0208504 0.158157,0.0127598 0.0465079,-0.00670472 0.0957165,-0.0137953 0.152362,-0.00633858 -0.0115118,-0.0384291 -0.0287559,-0.0751575 -0.0513543,-0.108772 -0.0328858,-0.0489173 -0.0772638,-0.0913504 -0.131961,-0.122941l-5.11811e-005 8.66142e-005c-0.00107087,-0.00061811 -0.00210236,-0.00127559 -0.00309449,-0.00197244 -0.0536339,-0.030311 -0.111449,-0.0469094 -0.169307,-0.0508583 -0.0500197,-0.00342126 -0.100059,0.00264173 -0.147453,0.0174764zm-0.0104291 0.18263c-0.0407795,-0.0606457 -0.0670984,-0.129587 -0.0774528,-0.201146 -0.00418898,-0.0194094 0.00602362,-0.0396063 0.0250472,-0.0473425l0.0156969 0.0385984 -0.015626 -0.0385748c0.067937,-0.027626 0.141819,-0.0397087 0.215752,-0.0346496 0.069878,0.00477165 0.139843,0.024937 0.204906,0.0617992 0.00122835,0.000555118 0.00243701,0.00117717 0.00362992,0.00186614l-0.0208346 0.0360866 0.0208346 -0.0359724c0.0658701,0.0380315 0.119465,0.0893583 0.15935,0.148685 0.0407756,0.0606535 0.0670945,0.129591 0.0774488,0.201154 0.00149606,0.00695669 0.00123622,0.0143898 -0.00112598,0.0216417 -0.00712598,0.021878 -0.0306457,0.0338386 -0.0525236,0.0267126l2.3622e-005 -7.48031e-005c-0.0681063,-0.0221772 -0.127307,-0.0136417 -0.182122,-0.00574016 -0.0708228,0.0102087 -0.135622,0.0195394 -0.210882,-0.0227874 -0.000933071,-0.000452756 -0.00185827,-0.000933071 -0.00276772,-0.00146063l4.72441e-005 -8.26772e-005 -5.11811e-005 -3.14961e-005 4.33071e-005 -7.08661e-005c-0.0659961,-0.0381181 -0.119602,-0.0894134 -0.159394,-0.14861z"/><path class="fil0" d="M2.22742 4.6491c0.0186063,0.0133937 0.0445512,0.00916535 0.0579449,-0.00944094 0.0133937,-0.0186063 0.00916535,-0.0445512 -0.00944094,-0.0579449 -0.00011811,-8.26772e-005 -0.0409764,-0.0285079 -0.0409764,-0.184244 0,-0.0230118 -0.0186575,-0.0416693 -0.0416693,-0.0416693 -0.0230118,0 -0.0416693,0.0186575 -0.0416693,0.0416693 0,0.198295 0.0755945,0.251476 0.075811,0.25163z"/></g><rect class="fil1" width="6.827" height="6.827"/><text x="0" y="21.826999999999998" fill="#000000" font-size="5px" font-weight="bold" font-family="'Helvetica Neue', Helvetica, Arial-Unicode, Arial, Sans-serif">Created by Grafix Point</text><text x="0" y="26.826999999999998" fill="#000000" font-size="5px" font-weight="bold" font-family="'Helvetica Neue', Helvetica, Arial-Unicode, Arial, Sans-serif">from the Noun Project</text></svg>